<svg width="32" height="32" viewBox="0 0 32 32" fill="none" xmlns="http://www.w3.org/2000/svg">
<g clip-path="url(#clip0_1_2)">
<rect width="32" height="32" rx="5" fill="#7C3AED"/>
<path d="M13.0049 9.90186C13.0049 9.66585 12.9845 9.49495 12.9438 9.38916C12.9113 9.28337 12.895 9.18571 12.895 9.09619C12.895 8.97412 12.9601 8.8724 13.0903 8.79102C13.2205 8.70964 13.3752 8.66895 13.5542 8.66895C13.9692 8.66895 14.3029 8.77881 14.5552 8.99854C14.8156 9.21012 14.9458 9.47054 14.9458 9.77979V17.9463C15.2632 17.8893 15.609 17.7917 15.9834 17.6533C16.3659 17.515 16.7443 17.3319 17.1187 17.104C17.5011 16.868 17.8674 16.5832 18.2173 16.2495C18.5754 15.9159 18.8887 15.5252 19.1572 15.0776C19.4339 14.63 19.6536 14.1255 19.8164 13.564C19.9873 12.9943 20.0728 12.3555 20.0728 11.6475C20.0728 11.1755 19.9914 10.6872 19.8286 10.1826C19.674 9.67806 19.4299 9.21826 19.0962 8.80322C18.7625 8.38818 18.3312 8.04639 17.8022 7.77783C17.2814 7.50928 16.6548 7.375 15.9224 7.375C14.9621 7.375 14.132 7.53369 13.4321 7.85107C12.7323 8.16846 12.1545 8.5957 11.6987 9.13281C11.243 9.66178 10.9053 10.2681 10.6855 10.9517C10.4658 11.6353 10.356 12.3433 10.356 13.0757C10.356 13.6291 10.4007 14.097 10.4902 14.4795C10.5879 14.8538 10.6937 15.1631 10.8076 15.4072C10.9215 15.6432 11.0273 15.8182 11.125 15.9321C11.2227 16.0461 11.2796 16.1112 11.2959 16.1274C11.4342 16.0868 11.5319 16.103 11.5889 16.1763C11.6458 16.2495 11.6743 16.3472 11.6743 16.4692C11.6743 16.5832 11.6336 16.7541 11.5522 16.9819C11.479 17.2098 11.3773 17.4255 11.2471 17.6289C11.1169 17.8242 10.9663 17.9748 10.7954 18.0806C10.6245 18.1782 10.4495 18.1579 10.2705 18.0195C10.1729 17.93 10.0223 17.7673 9.81885 17.5312C9.6154 17.2952 9.41195 16.9819 9.2085 16.5913C9.01318 16.1925 8.83822 15.7165 8.68359 15.1631C8.52897 14.6016 8.45166 13.9546 8.45166 13.2222C8.45166 12.0666 8.6307 11.0168 8.98877 10.0728C9.34684 9.12061 9.8514 8.3068 10.5024 7.63135C11.1616 6.94775 11.9469 6.42285 12.8584 6.05664C13.7699 5.68229 14.783 5.49512 15.8979 5.49512C16.8094 5.49512 17.6395 5.64567 18.3882 5.94678C19.1369 6.24788 19.7798 6.67106 20.3169 7.21631C20.854 7.75342 21.269 8.39632 21.562 9.14502C21.855 9.89372 22.0015 10.7116 22.0015 11.5986C22.0015 12.4531 21.8753 13.2547 21.623 14.0034C21.3789 14.7521 21.0412 15.4357 20.6099 16.0542C20.1785 16.6727 19.674 17.222 19.0962 17.7021C18.5265 18.1823 17.9121 18.5729 17.2529 18.874C17.668 19.11 18.0098 19.3989 18.2783 19.7407C18.555 20.0744 18.7869 20.4365 18.9741 20.8271C19.1694 21.2096 19.3363 21.6125 19.4746 22.0356C19.6211 22.4588 19.7676 22.8739 19.9141 23.2808C20.0605 23.6958 20.2274 24.0946 20.4146 24.4771C20.6017 24.8595 20.8377 25.2013 21.1226 25.5024C21.1551 25.5431 21.1958 25.5716 21.2446 25.5879C21.3016 25.6123 21.3545 25.6326 21.4033 25.6489C21.4603 25.6733 21.505 25.6978 21.5376 25.7222C21.5783 25.7547 21.5986 25.7954 21.5986 25.8442C21.5986 25.9663 21.5295 26.1006 21.3911 26.2471C21.2528 26.4017 21.09 26.5441 20.9028 26.6743C20.7157 26.8127 20.5244 26.9266 20.3291 27.0161C20.1419 27.1056 19.9995 27.1504 19.9019 27.1504C19.7798 27.1504 19.6699 27.1016 19.5723 27.0039C19.1654 26.54 18.848 26.0558 18.6201 25.5513C18.3923 25.0549 18.201 24.5584 18.0464 24.062C17.8918 23.5737 17.7493 23.0977 17.6191 22.6338C17.4889 22.1699 17.318 21.7427 17.1064 21.3521C16.903 20.9614 16.6344 20.6196 16.3008 20.3267C15.9671 20.0337 15.5155 19.8099 14.9458 19.6553V23.1221C14.9458 23.3337 14.8766 23.4801 14.7383 23.5615C14.5999 23.651 14.4372 23.6958 14.25 23.6958C14.1035 23.6958 13.957 23.6755 13.8105 23.6348C13.6641 23.5941 13.5298 23.5412 13.4077 23.4761C13.2938 23.411 13.1961 23.3337 13.1147 23.2441C13.0415 23.1628 13.0049 23.0732 13.0049 22.9756V9.90186Z" fill="white"/>
</g>
<defs>
<clipPath id="clip0_1_2">
<rect width="32" height="32" rx="5" fill="white"/>
</clipPath>
</defs>
</svg>
